<?xml version="1.0" standalone="no"?>
<!DOCTYPE svg PUBLIC "-//W3C//DTD SVG 20010904//EN"
 "http://www.w3.org/TR/2001/REC-SVG-20010904/DTD/svg10.dtd">
<svg version="1.0" xmlns="http://www.w3.org/2000/svg"
 width="594.000000pt" height="222.000000pt" viewBox="0 0 594.000000 222.000000"
 preserveAspectRatio="xMidYMid meet">

<g transform="translate(0.000000,222.000000) scale(0.100000,-0.100000)"
fill="#000000" stroke="none">
<path d="M3365 2160 c4 -33 3 -66 -2 -73 -5 -6 -10 -24 -12 -39 -2 -22 2 -28
17 -28 15 0 18 -5 15 -25 -3 -13 0 -68 6 -122 19 -174 22 -225 13 -236 -15
-20 -24 -67 -12 -67 15 0 38 -59 33 -81 -3 -11 -13 -19 -23 -19 -19 0 -119
-33 -165 -54 -51 -24 -145 -38 -159 -23 -18 18 -6 97 14 97 5 0 6 -8 3 -17 -7
-17 -6 -17 20 0 14 9 34 17 44 17 15 0 15 1 1 13 -9 6 -19 25 -22 41 -7 27 -5
28 19 22 17 -4 24 -3 20 4 -3 6 3 10 16 10 18 0 20 -3 11 -12 -20 -20 -13 -32
8 -13 27 24 34 74 18 123 l-14 41 -44 -20 c-28 -13 -46 -16 -48 -9 -2 5 -8 8
-13 5 -15 -10 3 29 23 48 14 14 16 22 8 32 -8 9 -8 15 0 20 6 4 10 12 8 18 -1
7 1 22 5 33 6 16 13 20 29 16 14 -3 19 -1 15 6 -4 5 -21 8 -39 5 -33 -5 -82
-32 -74 -41 3 -2 1 -13 -4 -23 -10 -17 -35 -19 -112 -10 -4 1 -14 16 -22 35
-8 19 -24 39 -35 46 -12 6 -21 21 -21 35 0 13 -7 31 -16 39 -12 12 -12 16 -2
16 10 0 10 2 0 8 -7 5 -24 44 -38 88 -31 95 -52 137 -64 129 -10 -6 -2 -33 37
-133 23 -61 27 -101 10 -113 -5 -4 -3 -16 4 -27 9 -15 17 -18 25 -11 16 13 29
-7 16 -24 -14 -18 -6 -50 17 -66 12 -7 21 -21 20 -30 0 -12 -2 -11 -9 4 -6 14
-9 15 -9 5 -1 -9 5 -24 12 -35 7 -11 21 -46 31 -77 11 -32 22 -55 26 -53 4 3
13 -1 19 -9 15 -18 1 -28 -64 -49 -27 -9 -77 -25 -110 -36 -33 -10 -67 -22
-76 -25 -13 -6 -15 -1 -11 23 3 22 -2 34 -18 48 -12 10 -26 28 -31 41 -5 12
-14 22 -20 22 -7 0 -10 -2 -7 -5 10 -11 -50 -65 -72 -65 -11 0 -19 4 -16 9 3
5 -3 11 -14 14 -25 6 -26 42 -2 56 15 9 15 10 -5 11 -13 0 -23 4 -23 10 0 5 7
7 15 4 9 -4 15 0 15 9 0 9 8 18 18 20 16 4 16 5 -1 6 -16 1 -16 3 -1 25 8 14
21 27 27 29 7 2 -1 3 -18 1 -16 -2 -38 -14 -47 -25 -22 -26 -24 -46 -3 -29 8
7 15 8 15 2 0 -5 -7 -15 -15 -22 -8 -7 -15 -18 -15 -25 0 -25 -51 -55 -94 -55
-48 0 -61 7 -70 38 -4 12 -13 22 -21 22 -7 0 -43 40 -80 90 -37 49 -72 87 -76
84 -12 -7 5 -38 57 -105 40 -52 57 -90 63 -140 0 -6 8 -8 17 -5 8 3 12 2 9 -4
-3 -6 -2 -10 3 -10 5 0 14 -11 20 -25 6 -14 18 -25 26 -25 9 0 20 -9 26 -20 9
-17 6 -20 -32 -29 -76 -18 -173 -53 -189 -67 -9 -8 -42 -19 -74 -25 -33 -6
-80 -21 -106 -34 -36 -19 -49 -21 -58 -12 -10 9 -12 9 -9 -2 2 -7 -3 -16 -10
-18 -8 -3 -10 1 -5 13 5 13 3 15 -7 9 -10 -6 -12 -4 -7 8 4 10 1 17 -6 17 -9
0 -9 2 0 8 13 8 35 103 27 112 -10 10 -39 -18 -42 -41 -5 -33 -18 -47 -80 -82
-29 -16 -78 -54 -108 -84 -30 -29 -60 -51 -65 -47 -7 4 -8 -7 -3 -33 8 -47 12
-53 30 -53 17 0 14 21 -6 37 -8 7 -10 13 -4 13 13 0 44 -33 44 -47 0 -14 -29
-25 -42 -16 -7 3 -8 1 -4 -5 4 -7 2 -12 -4 -12 -6 0 -30 -18 -54 -40 -24 -22
-48 -40 -53 -40 -6 0 -22 -17 -35 -37 -14 -21 -44 -57 -67 -79 -23 -23 -41
-51 -41 -63 0 -12 -4 -19 -10 -16 -6 3 -7 -1 -4 -9 4 -11 0 -16 -10 -16 -9 0
-16 8 -16 18 -1 15 -2 14 -12 -3 -20 -38 -55 -64 -67 -52 -13 13 -15 51 -2 42
5 -3 12 -1 16 5 4 6 -6 10 -22 11 -17 1 -21 3 -11 6 25 6 27 113 2 113 -10 0
-14 -6 -11 -14 4 -10 1 -13 -8 -10 -8 3 -16 -4 -20 -18 -4 -13 -21 -39 -36
-59 -16 -20 -29 -46 -29 -58 0 -12 -4 -21 -10 -21 -14 0 -13 -27 2 -36 7 -4 8
-3 4 4 -4 7 -3 12 2 12 16 0 22 -44 12 -80 -5 -18 -7 -36 -5 -41 7 -10 -40
-61 -48 -52 -4 3 -7 0 -7 -7 0 -7 -3 -10 -7 -7 -3 4 -14 0 -23 -8 -14 -13 -21
-13 -55 5 -42 21 -80 27 -70 10 3 -5 1 -10 -4 -10 -6 0 -11 6 -11 14 0 17 -27
29 -32 14 -6 -18 -40 24 -35 44 3 10 -2 22 -11 28 -16 9 -16 9 -1 10 9 0 19 9
22 20 6 22 -8 28 -16 8 -3 -7 -6 14 -6 47 -1 36 -7 69 -16 82 -20 28 -83 65
-90 52 -4 -5 -11 -6 -17 -3 -6 4 -8 2 -5 -3 11 -17 -36 -43 -56 -31 -9 5 -17
14 -17 19 0 6 5 7 12 3 7 -4 8 -3 4 4 -4 7 0 22 10 34 14 20 16 21 10 3 -6
-15 -4 -17 5 -8 6 6 17 9 24 7 7 -3 15 2 18 10 4 11 1 16 -11 16 -37 0 -57 45
-24 53 15 4 15 5 0 6 -9 0 -18 9 -20 18 -3 16 -6 15 -26 -5 -25 -25 -29 -62
-7 -62 17 0 20 -16 5 -25 -6 -3 -10 0 -10 7 -1 8 -6 6 -15 -6 -8 -11 -16 -18
-17 -15 -2 2 -12 22 -23 43 -18 35 -45 59 -94 83 -14 6 -44 -22 -53 -49 -3 -9
-12 -8 -31 5 -33 21 -33 29 -4 53 12 10 16 12 10 4 -20 -22 -15 -30 12 -20 14
5 25 6 25 3 0 -4 5 -2 11 4 11 11 -8 53 -24 53 -4 0 -5 -5 -2 -10 7 -11 -6
-13 -30 -4 -13 5 -14 8 -3 15 10 7 10 9 -2 9 -9 1 -5 6 10 15 l25 15 -28 -6
c-31 -7 -35 2 -9 23 16 13 15 13 -4 4 -30 -14 -47 -38 -40 -56 3 -8 2 -14 -2
-14 -20 3 -30 -3 -40 -26 -15 -32 -15 -35 -2 -35 6 0 10 9 10 21 0 11 5 17 10
14 6 -3 10 -20 10 -36 0 -17 4 -28 8 -25 5 3 15 -6 22 -19 7 -14 19 -25 27
-25 7 0 12 -3 11 -7 0 -5 2 -15 6 -24 4 -8 0 -29 -9 -45 -8 -16 -15 -34 -15
-41 0 -7 -10 -21 -21 -32 -17 -15 -27 -18 -46 -10 -31 11 -43 11 -43 0 0 -10
39 -27 53 -23 4 1 3 -6 -2 -16 -23 -44 -32 -43 -166 3 -147 51 -138 49 -133
33 2 -6 57 -30 122 -52 65 -23 116 -45 114 -51 -1 -5 -7 -9 -11 -7 -5 1 -6 -2
-3 -7 3 -5 -10 -21 -29 -35 -22 -17 -35 -35 -34 -49 l0 -22 9 23 c5 12 11 22
14 22 2 0 2 -10 0 -22 l-5 -23 12 23 c7 12 18 22 25 22 16 0 55 50 48 61 -3 5
-1 9 5 9 5 0 13 -4 16 -10 10 -15 23 -12 47 12 12 12 38 24 59 28 35 7 37 5
43 -21 3 -19 13 -29 28 -32 13 -2 7 -3 -12 -1 -19 1 -52 6 -73 10 -47 8 -48
-2 -2 -22 42 -17 44 -29 7 -52 -53 -32 -131 -107 -143 -135 -11 -25 -9 -32 18
-65 28 -35 73 -135 87 -195 7 -30 -22 -91 -47 -100 -9 -3 -9 -7 0 -17 9 -10
25 -10 78 0 55 10 68 17 75 36 6 14 18 24 29 24 33 0 34 18 2 63 -16 24 -41
71 -54 105 -14 34 -35 74 -47 89 l-21 28 33 14 c136 58 139 59 170 50 19 -5
28 -4 28 3 0 6 3 8 6 5 4 -4 -9 -26 -27 -49 -48 -60 -66 -89 -89 -148 l-20
-51 27 -25 c14 -13 28 -22 31 -19 3 3 11 0 19 -6 7 -6 13 -8 13 -4 0 4 7 2 15
-5 8 -7 21 -10 29 -7 8 3 17 -1 20 -9 3 -9 10 -13 15 -9 5 3 12 1 15 -4 3 -5
21 -12 41 -15 38 -8 95 -50 95 -72 0 -24 35 -26 288 -15 21 1 13 21 -8 21 -19
0 -25 15 -20 50 3 25 13 27 90 19 135 -14 414 -40 465 -43 205 -12 246 -17
440 -56 33 -7 87 -15 120 -19 33 -3 71 -14 85 -24 28 -20 81 -22 98 -5 8 8 15
9 20 3 8 -12 82 -16 82 -4 0 4 -8 13 -17 18 -14 8 -10 9 17 5 102 -13 341 -34
396 -34 70 0 86 15 27 24 -42 6 -355 33 -470 40 -55 3 -128 23 -318 86 -135
45 -244 84 -241 87 8 9 145 -21 139 -30 -3 -5 4 -6 16 -2 21 6 112 -4 251 -30
41 -7 125 -21 185 -30 61 -9 123 -21 140 -26 16 -5 56 -12 90 -15 33 -4 62 -9
65 -13 3 -3 25 -7 50 -9 25 -1 68 -6 95 -12 28 -5 85 -12 128 -16 42 -3 77 -9
77 -13 0 -3 24 -7 53 -8 28 -1 86 -9 127 -17 86 -18 210 -22 194 -6 -6 6 -73
19 -150 30 -76 12 -150 23 -164 25 -14 2 -95 13 -180 24 -85 11 -303 45 -485
75 -181 30 -411 67 -510 81 -99 14 -207 33 -240 41 -67 16 -195 62 -209 75 -5
4 -8 41 -7 82 2 54 -4 90 -20 137 -20 57 -20 64 -5 72 9 5 24 17 34 27 9 10
29 26 44 35 14 10 34 33 43 53 24 50 54 82 100 105 56 29 195 142 183 149 -8
5 77 22 172 34 14 1 37 8 53 14 23 9 27 16 27 53 0 37 4 45 31 61 17 9 44 17
61 17 16 0 71 11 121 24 173 45 214 49 237 26 19 -19 214 -276 251 -330 14
-21 38 -55 55 -75 79 -100 129 -163 153 -191 44 -52 86 -106 91 -119 3 -7 20
-32 38 -56 196 -261 265 -353 279 -367 14 -15 17 -26 6 -19 -5 3 -105 63 -223
135 -188 113 -590 366 -668 421 -32 22 -294 184 -477 293 -131 79 -176 97
-140 58 10 -11 24 -20 31 -20 7 0 28 -12 46 -27 36 -31 50 -40 120 -77 39 -22
180 -109 214 -133 17 -13 47 -32 84 -53 19 -11 65 -39 102 -62 37 -24 109 -70
160 -102 51 -32 118 -75 148 -95 30 -20 63 -40 72 -46 34 -20 181 -111 218
-135 76 -48 205 -131 224 -143 11 -7 38 -24 59 -39 22 -16 45 -28 52 -28 7 0
20 -9 30 -20 11 -12 31 -20 49 -20 26 1 38 10 74 60 24 33 48 60 53 60 5 0 8
3 7 8 -4 11 81 119 108 137 36 23 182 107 229 130 22 11 42 23 43 28 2 4 7 7
12 7 4 0 36 16 70 35 35 20 65 33 68 30 3 -3 11 4 18 14 8 10 27 24 44 29 28
10 30 9 30 -12 0 -25 -43 -70 -77 -81 -13 -3 -23 -13 -23 -21 0 -18 37 -18 74
1 15 8 48 15 72 15 23 0 46 4 49 10 3 5 -1 30 -10 55 -24 73 -22 80 48 119
l62 35 15 -79 c12 -59 22 -85 41 -102 34 -31 109 -133 138 -187 18 -34 24 -60
24 -108 0 -89 10 -85 71 29 20 37 36 71 36 75 0 5 -14 14 -31 20 -18 7 -28 17
-24 23 3 6 1 9 -5 8 -6 -2 -17 14 -25 35 -12 35 -25 57 -90 146 -22 30 -25 45
-25 116 l0 82 53 34 c28 19 66 42 82 50 17 9 81 44 142 78 62 35 117 60 122
57 5 -3 12 -21 15 -41 4 -19 19 -49 33 -66 26 -30 29 -31 84 -26 l56 6 6 -62
c3 -35 2 -63 -4 -65 -22 -8 -6 -22 27 -22 21 0 33 -4 29 -10 -11 -17 3 -11 23
11 11 11 32 23 47 27 18 5 29 16 32 30 1 12 4 30 6 40 1 9 6 23 10 29 5 8 3
13 -5 13 -7 0 2 10 19 23 21 14 33 31 33 45 0 13 7 30 15 38 8 9 15 25 15 37
0 12 10 40 22 62 29 53 50 171 33 185 -17 14 -32 -6 -59 -82 -30 -86 -64 -131
-93 -123 -17 4 -31 -2 -49 -20 -14 -14 -30 -25 -37 -25 -7 0 -25 -8 -42 -18
-77 -47 -159 -30 -153 31 2 24 11 35 43 52 22 11 61 34 88 49 44 26 62 25 35
-2 -10 -10 -10 -15 0 -21 8 -5 13 -11 13 -15 -1 -3 2 -6 5 -5 4 0 11 -5 16
-13 8 -10 11 -11 15 0 4 9 8 10 18 2 10 -8 19 -5 39 15 14 14 20 25 14 25 -7
0 -7 4 1 14 9 11 6 12 -14 8 -15 -2 -25 0 -25 7 0 6 7 11 15 11 8 0 15 6 15
13 0 21 -12 28 -27 16 -10 -9 -13 -8 -13 2 0 8 36 31 80 52 44 21 90 49 102
62 12 13 26 21 30 19 5 -3 1 -12 -7 -20 -8 -9 -13 -20 -9 -25 3 -5 19 8 34 30
16 22 39 43 51 46 27 9 54 33 45 42 -3 3 -25 -3 -48 -15 -24 -11 -58 -26 -75
-33 -18 -6 -33 -15 -33 -19 0 -8 -38 -31 -172 -104 -37 -20 -107 -60 -155 -88
-49 -29 -98 -51 -110 -50 -11 1 -34 -11 -50 -26 -15 -16 -93 -65 -173 -109
-211 -117 -189 -109 -177 -63 13 48 7 56 -34 41 -34 -12 -112 -4 -103 10 3 5
-1 6 -9 3 -10 -3 -18 5 -25 25 -10 29 -12 29 -49 20 -50 -14 -183 -79 -205
-101 -16 -16 -16 -20 -1 -60 8 -24 15 -53 14 -65 0 -13 3 -23 7 -23 8 0 32
-58 32 -77 0 -6 -93 -62 -207 -124 -115 -61 -219 -118 -232 -126 -23 -15 -23
-14 -10 4 8 11 36 46 62 79 84 103 175 222 194 251 10 15 33 45 52 65 19 21
41 48 49 60 9 13 18 25 22 28 3 3 16 22 30 42 14 21 28 38 33 38 4 0 7 5 7 11
0 5 24 40 54 77 65 81 82 112 64 112 -12 0 -81 -85 -263 -325 -38 -51 -90
-119 -115 -151 -195 -256 -270 -342 -327 -374 -70 -39 -67 -36 -58 -50 5 -8
10 -8 21 0 7 7 18 10 23 8 6 -1 -13 -33 -41 -70 -29 -37 -53 -66 -55 -65 -3 4
47 206 72 292 8 28 28 97 44 155 17 58 42 144 56 192 14 48 25 94 25 102 0 21
109 156 126 156 3 0 2 -6 -2 -12 -3 -7 4 -1 17 13 13 14 40 34 59 44 46 23 69
44 87 78 l15 29 -31 -7 c-36 -8 -80 13 -110 52 -17 20 -19 28 -9 35 7 4 8 8 2
8 -5 0 -16 -6 -23 -12 -11 -11 -13 -10 -7 5 3 10 6 23 6 29 0 5 14 -2 32 -17
28 -24 37 -26 77 -20 49 7 64 15 44 22 -10 4 -9 10 2 26 8 12 15 29 15 39 0
10 5 18 11 18 7 0 9 11 6 26 -4 20 0 28 15 32 13 3 18 11 15 23 -3 12 2 20 14
24 40 13 76 128 57 182 -10 26 -9 43 5 86 19 60 24 227 7 227 -7 0 -7 7 1 21
7 14 8 24 1 31 -11 11 -5 26 48 144 33 72 36 84 17 84 -7 0 -30 -44 -51 -97
-22 -54 -47 -109 -58 -122 -10 -13 -18 -33 -18 -45 0 -27 -83 -229 -110 -266
-11 -15 -20 -31 -20 -34 0 -16 -61 -97 -102 -137 -53 -51 -62 -84 -25 -98 12
-5 28 -6 36 -3 17 6 10 -29 -21 -100 -15 -34 -28 -49 -51 -58 -18 -6 -41 -17
-52 -23 -11 -6 -45 -24 -75 -40 -34 -18 -77 -53 -113 -95 -89 -102 -119 -133
-123 -130 -1 2 -8 53 -13 113 -6 61 -13 129 -17 153 -5 41 -4 42 23 42 30 1
109 39 82 40 -22 0 -99 75 -99 96 0 9 5 14 12 12 6 -2 24 9 40 24 16 16 34 25
40 22 7 -4 8 -2 4 4 -5 8 0 12 13 12 13 0 21 -7 22 -17 0 -13 2 -14 6 -4 3 8
-3 21 -13 29 -13 10 -15 16 -6 19 6 3 10 8 8 11 -2 4 7 8 21 9 14 0 29 7 34
15 8 12 13 4 10 -15 -1 -5 3 -6 8 -2 6 3 8 12 4 20 -3 8 -1 15 4 15 11 0 16
83 7 123 -3 15 -10 27 -15 27 -6 0 -7 -5 -3 -12 4 -6 3 -8 -3 -5 -6 4 -28 -2
-49 -12 -36 -18 -40 -18 -57 -3 -16 14 -19 14 -27 2 -6 -8 -10 -19 -10 -23 0
-5 -5 -5 -12 -1 -6 4 -8 3 -5 -3 4 -6 -1 -34 -11 -64 -20 -58 -32 -50 -32 22
0 21 -4 39 -10 39 -15 0 -30 69 -30 138 l0 63 42 -41 c23 -22 46 -40 50 -40 4
0 8 -6 8 -14 0 -8 9 -24 20 -37 15 -19 19 -20 20 -8 0 9 7 22 16 30 8 7 13 21
11 31 -4 12 0 18 11 19 11 0 12 2 5 6 -21 8 -15 27 15 45 25 16 26 17 5 18
-34 0 -76 -22 -61 -32 7 -4 9 -8 3 -8 -32 1 -124 128 -141 194 -4 16 -12 25
-19 22 -9 -3 -14 7 -17 30 -3 26 0 34 12 34 13 1 13 2 0 13 -16 13 -16 13 -18
87 -2 39 -6 50 -18 50 -14 0 -15 -9 -9 -60z m816 -327 c-34 -117 -36 -148 -12
-182 l22 -30 -20 -55 c-10 -30 -16 -58 -13 -62 4 -5 -1 -2 -11 5 -14 11 -23
11 -43 2 -14 -6 -36 -11 -50 -11 -14 0 -35 -5 -47 -11 -14 -8 -11 -1 11 18 17
16 32 34 32 40 0 6 10 18 23 27 12 9 17 15 11 12 -7 -3 -10 3 -9 17 5 43 10
52 35 64 17 8 20 12 8 13 -15 0 -14 7 7 61 14 34 30 67 36 75 6 8 8 14 4 14
-4 0 -3 6 3 13 5 6 13 28 17 47 5 19 10 30 12 23 2 -6 -5 -42 -16 -80z m-1054
-69 c-3 -3 -12 -4 -19 -1 -8 3 -5 6 6 6 11 1 17 -2 13 -5z m-29 -49 c-3 -3 -9
2 -12 12 -6 14 -5 15 5 6 7 -7 10 -15 7 -18z m-48 -12 c0 -19 -19 -26 -35 -13
-22 19 -18 30 10 28 14 -1 25 -8 25 -15z m40 -135 c0 -13 -23 -5 -28 10 -2 7
2 10 12 6 9 -3 16 -11 16 -16z m-625 -10 c-3 -12 -9 -26 -14 -31 -11 -11 -34
1 -26 14 4 5 0 9 -7 9 -7 1 -2 7 12 15 34 20 40 19 35 -7z m538 -8 c3 -11 2
-18 -3 -15 -4 3 -10 14 -13 25 -3 11 -2 18 3 15 4 -3 10 -14 13 -25z m-37 -16
c-4 -9 -9 -15 -11 -12 -3 3 -3 13 1 22 4 9 9 15 11 12 3 -3 3 -13 -1 -22z m4
-34 c0 -5 -5 -10 -11 -10 -5 0 -7 5 -4 10 3 6 8 10 11 10 2 0 4 -4 4 -10z m59
-22 c1 8 6 12 12 10 17 -6 11 -23 -8 -23 -10 0 -19 9 -20 20 l-3 20 9 -20 c5
-11 10 -14 10 -7z m-7 -46 c12 -20 24 -46 26 -57 2 -18 0 -18 -21 5 -13 14
-22 32 -19 40 3 8 2 12 -3 8 -9 -9 -34 20 -35 39 0 22 29 2 52 -35z m-603 1
c9 -19 9 -23 -2 -23 -9 0 -14 10 -14 25 0 29 0 29 16 -2z m1042 -44 c-9 -23
-10 -22 -10 11 -1 23 2 31 9 24 7 -7 7 -19 1 -35z m-691 17 c-36 -7 -76 -19
-90 -26 -34 -19 -111 -39 -127 -33 -26 10 -12 21 20 17 24 -4 28 -2 17 5 -13
9 -12 11 3 11 10 0 25 7 33 15 22 21 34 19 29 -6 -3 -12 -1 -18 3 -15 4 4 7
13 7 19 0 13 56 24 125 24 42 1 40 0 -20 -11z m1240 -12 c0 -4 -11 -17 -25
-30 -28 -26 -37 -7 -9 20 16 16 34 21 34 10z m85 -34 c-3 -5 -16 -10 -28 -9
-21 0 -21 1 -2 9 28 12 37 12 30 0z m-1584 -21 c15 -15 15 -16 -7 -16 -14 0
-24 5 -24 14 0 11 -4 11 -20 3 -16 -9 -20 -8 -20 5 0 20 49 17 71 -6z m-207
-14 c-10 -8 -50 -24 -88 -36 -38 -11 -80 -27 -92 -35 -20 -14 -22 -13 -26 8
-3 13 -9 31 -13 41 -6 14 -1 17 31 18 22 1 53 5 69 9 17 4 54 8 84 9 50 1 53
0 35 -14z m661 5 c-3 -5 -12 -10 -18 -10 -7 0 -6 4 3 10 19 12 23 12 15 0z
m-1150 -20 c3 -5 -3 -10 -15 -10 -12 0 -18 5 -15 10 3 6 10 10 15 10 5 0 12
-4 15 -10z m1000 -13 c29 -34 82 -49 125 -37 19 5 60 13 90 16 l56 6 16 -41
16 -41 -46 -21 c-45 -21 -82 -22 -187 -7 -24 4 -32 -26 -11 -47 28 -28 62 -35
123 -24 32 6 78 13 103 15 l45 5 42 -128 c39 -119 138 -403 169 -483 29 -78
87 -240 114 -320 l29 -85 -30 35 c-16 19 -49 60 -72 90 -23 30 -85 109 -137
174 -52 66 -162 208 -243 315 -81 108 -161 211 -178 230 -16 19 -35 43 -41 54
-6 12 -53 76 -105 144 -89 115 -93 123 -68 123 14 0 40 8 58 17 18 9 48 20 67
24 19 4 37 7 40 8 2 0 14 -10 25 -22z m108 16 c-7 -2 -19 -2 -25 0 -7 3 -2 5
12 5 14 0 19 -2 13 -5z m442 -8 c-16 -8 -46 -16 -66 -20 -20 -3 -56 -18 -80
-34 -54 -36 -85 -46 -86 -29 -1 7 -4 27 -8 45 -6 28 -5 33 16 37 39 9 89 13
174 14 75 1 78 0 50 -13z m577 -37 c-8 -8 -9 -4 -5 13 4 13 8 18 11 10 2 -7
-1 -18 -6 -23z m-2212 -13 c7 -8 10 -15 6 -15 -3 0 -1 -11 4 -24 7 -20 5 -25
-12 -29 -32 -9 -58 13 -51 43 10 39 32 50 53 25z m300 -35 c0 -4 -10 -6 -22
-3 -19 4 -20 3 -8 -6 12 -8 8 -11 -17 -11 -42 0 -42 7 -1 25 33 13 48 12 48
-5z m-100 -15 c0 -8 -2 -15 -4 -15 -2 0 -6 7 -10 15 -3 8 -1 15 4 15 6 0 10
-7 10 -15z m1528 -117 c16 -178 17 -168 -17 -168 -16 0 -41 4 -55 10 -17 6
-27 6 -32 -1 -9 -16 13 -35 56 -48 47 -14 66 -40 74 -98 4 -34 2 -43 -9 -43
-20 0 -19 -29 2 -52 10 -12 17 -41 20 -85 2 -38 11 -146 19 -241 7 -95 14
-185 13 -200 0 -24 -1 -25 -9 -7 -5 11 -32 83 -60 160 -29 77 -67 183 -86 235
-19 52 -44 124 -56 159 -11 36 -49 144 -84 240 -35 96 -64 176 -64 178 0 2 6
3 13 3 7 0 31 13 54 30 39 28 128 57 184 59 l26 1 11 -132z m-1408 38 c0 -11
-47 -30 -87 -36 -52 -8 -56 3 -8 22 35 14 95 22 95 14z m1790 -71 c0 -3 -22
-30 -50 -60 -27 -30 -50 -64 -50 -74 0 -11 -16 -39 -35 -63 -81 -99 -108 -118
-166 -118 -27 0 -29 3 -29 39 0 30 8 47 41 84 22 26 58 56 79 68 22 12 54 40
71 62 17 21 46 45 63 53 31 13 76 19 76 9z m-2220 -116 c-40 -29 -90 -88 -90
-107 0 -6 -13 -25 -30 -42 -16 -17 -30 -35 -30 -40 0 -5 -10 -16 -22 -24 -20
-14 -22 -13 -38 17 l-18 32 47 51 c25 28 54 63 63 76 20 30 92 66 130 66 27
-1 26 -1 -12 -29z m2217 -11 c-3 -8 -6 -5 -6 6 -1 11 2 17 5 13 3 -3 4 -12 1
-19z m-3444 -92 c3 -8 0 -19 -7 -25 -10 -9 -12 -6 -8 14 5 29 8 31 15 11z m47
10 c0 -2 -7 -7 -16 -10 -8 -3 -12 -2 -9 4 6 10 25 14 25 6z m777 -18 c-2 -7 0
-21 5 -30 13 -27 3 -21 -17 8 -9 15 -12 23 -6 20 6 -4 11 -2 11 3 0 6 3 11 6
11 3 0 4 -6 1 -12z m-620 -35 c-3 -10 -5 -4 -5 12 0 17 2 24 5 18 2 -7 2 -21
0 -30z m3077 -284 c-41 -145 -82 -289 -91 -319 l-17 -55 -8 90 c-4 50 -12 148
-18 220 -6 72 -13 151 -17 178 -6 53 -1 56 52 31 47 -22 69 -15 73 21 3 22 17
40 50 66 26 20 48 35 49 34 2 -1 -31 -120 -73 -266z m814 219 c11 -40 3 -51
-67 -83 l-51 -24 0 41 c0 27 -6 45 -17 54 -23 16 -12 26 40 35 81 13 86 12 95
-23z m-3990 -42 c12 -4 22 -12 22 -17 0 -6 -10 -3 -21 5 -12 8 -27 12 -34 10
-7 -3 -15 -1 -19 4 -6 10 18 9 52 -2z m245 -3 c-7 -2 -19 -2 -25 0 -7 3 -2 5
12 5 14 0 19 -2 13 -5z m615 -15 c18 -18 15 -28 -8 -28 -11 0 -20 5 -20 10 0
7 -6 7 -20 0 -25 -13 -26 -2 -2 16 21 17 35 17 50 2z m-85 -25 c-7 -2 -19 -2
-25 0 -7 3 -2 5 12 5 14 0 19 -2 13 -5z m-528 -33 c3 -6 -1 -7 -9 -4 -18 7
-21 14 -7 14 6 0 13 -4 16 -10z m115 -51 c0 -6 7 -8 18 -4 13 5 14 3 5 -6 -7
-7 -19 -9 -30 -4 -10 5 -22 7 -26 6 -5 -1 -6 3 -2 9 8 13 35 13 35 -1z m570
-26 c0 -15 5 -53 12 -85 7 -31 9 -60 6 -63 -3 -3 -42 9 -86 26 -79 31 -80 32
-66 54 14 22 14 23 -32 30 -30 4 -43 10 -34 15 10 6 8 11 -8 19 -16 9 -21 8
-24 -5 -3 -13 -5 -13 -23 1 -19 14 -19 15 -1 8 15 -5 18 -3 13 10 -6 15 -3 16
14 7 15 -9 24 -8 35 1 10 8 14 8 14 0 0 -14 62 -13 120 3 54 15 60 13 60 -21z
m-615 -103 c-3 -5 -1 -10 5 -10 14 0 9 -68 -6 -74 -6 -2 -28 -1 -49 4 -21 5
-45 6 -54 3 -9 -3 -1 5 18 18 19 13 43 34 55 45 22 23 42 31 31 14z m532 -41
c71 -23 91 -34 86 -45 -7 -19 -57 -12 -167 24 -80 26 -80 26 -50 39 38 16 26
17 131 -18z m-137 -49 c30 -6 68 -14 84 -17 41 -7 128 -36 221 -73 44 -18 152
-57 240 -86 181 -61 187 -60 -110 -29 -77 8 -223 22 -325 31 -102 9 -194 18
-205 19 -11 2 -30 4 -43 4 -21 1 -22 4 -16 59 4 31 11 59 16 60 4 2 8 9 8 16
0 16 53 46 65 36 5 -4 35 -13 65 -20z m330 -20 c12 -8 11 -10 -7 -10 -12 0
-25 5 -28 10 -8 13 15 13 35 0z m80 -50 c52 -11 104 -25 115 -30 11 -5 52 -18
92 -30 39 -11 84 -27 100 -35 15 -8 33 -15 39 -15 19 0 114 -42 114 -51 0 -16
-69 0 -225 51 -328 108 -370 122 -374 126 -10 10 53 2 139 -16z m-946 -79 c3
-5 -1 -12 -10 -15 -8 -3 -12 -2 -9 3 3 5 -3 12 -12 14 -14 4 -13 5 4 6 12 0
24 -3 27 -8z m216 -34 c0 -5 -4 -5 -10 -2 -5 3 -10 14 -10 23 0 15 2 15 10 2
5 -8 10 -19 10 -23z m83 -7 c-3 -12 -8 -19 -11 -16 -5 6 5 36 12 36 2 0 2 -9
-1 -20z"/>
<path d="M4105 1580 c3 -5 1 -10 -4 -10 -6 0 -11 -7 -11 -15 0 -8 6 -15 14
-15 8 0 14 10 14 25 0 14 -5 25 -10 25 -5 0 -6 -4 -3 -10z"/>
<path d="M3210 1839 c0 -5 5 -7 10 -4 6 3 10 8 10 11 0 2 -4 4 -10 4 -5 0 -10
-5 -10 -11z"/>
<path d="M4905 1766 c-31 -41 -63 -77 -71 -80 -8 -3 -20 -18 -26 -33 -7 -15
-49 -78 -94 -138 -62 -84 -90 -113 -116 -123 -25 -8 -38 -22 -48 -48 -8 -20
-22 -40 -32 -45 -10 -5 -18 -16 -18 -24 0 -7 -15 -23 -34 -34 -37 -23 -86 -82
-86 -103 0 -8 14 -19 30 -25 17 -6 30 -7 30 -2 0 5 5 9 11 9 5 0 7 -4 4 -10
-8 -13 20 -13 62 -1 21 6 35 6 39 0 3 -6 -3 -13 -15 -16 -12 -3 -21 -10 -21
-15 0 -5 -4 -7 -9 -4 -11 7 -26 -69 -16 -83 3 -6 0 -19 -7 -31 -17 -27 0 -54
36 -58 14 -2 26 -8 26 -13 0 -5 14 4 31 21 18 16 36 30 42 30 5 0 6 7 3 16 -3
8 -2 12 4 9 6 -4 10 9 10 29 0 20 5 36 10 36 7 0 7 6 1 19 -8 14 -7 22 6 32
14 12 15 11 9 -11 l-7 -25 15 24 c7 14 12 30 9 37 -2 6 5 27 17 47 14 23 23
61 27 109 4 56 13 85 37 128 43 77 78 160 81 192 1 15 8 35 16 44 8 9 12 26
11 37 -2 11 0 23 5 26 10 7 63 77 86 113 9 15 13 29 8 32 -5 3 -35 -27 -66
-68z m-75 -154 c0 -5 -21 -35 -46 -68 -26 -32 -58 -83 -72 -112 -16 -32 -31
-51 -39 -48 -7 3 -13 1 -13 -4 0 -6 6 -10 14 -10 20 0 26 -34 14 -78 -12 -42
-26 -63 -42 -61 -6 1 -20 -1 -31 -6 -11 -4 -35 -14 -54 -21 -18 -8 -45 -14
-59 -14 l-25 0 23 25 c24 26 68 36 54 13 -5 -8 -1 -8 12 2 29 22 30 24 12 17
-23 -8 -25 18 -2 27 8 3 12 2 9 -3 -9 -16 36 -24 51 -10 18 19 2 48 -18 32
-10 -9 -13 -6 -14 12 -1 17 3 21 15 18 11 -3 18 1 18 11 0 8 -3 15 -6 14 -20
-2 -31 3 -26 13 4 6 14 8 22 4 13 -5 14 -3 3 10 -7 9 -9 15 -4 14 5 -1 14 -1
20 0 11 1 141 168 163 209 12 22 21 28 21 14z m-283 -354 c-3 -8 -6 -5 -6 6
-1 11 2 17 5 13 3 -3 4 -12 1 -19z"/>
<path d="M3157 1764 c-8 -8 3 -34 14 -34 4 0 13 9 19 20 9 17 8 20 -8 20 -10
0 -21 -3 -25 -6z"/>
<path d="M3125 1720 c-3 -5 -1 -10 4 -10 6 0 11 5 11 10 0 6 -2 10 -4 10 -3 0
-8 -4 -11 -10z"/>
<path d="M3630 1719 c0 -5 -4 -7 -10 -4 -13 8 -13 -6 0 -25 9 -13 11 -13 20 0
13 19 13 40 0 40 -5 0 -10 -5 -10 -11z"/>
<path d="M2585 1640 c-3 -5 -2 -10 4 -10 5 0 13 5 16 10 3 6 2 10 -4 10 -5 0
-13 -4 -16 -10z"/>
<path d="M3485 1611 c-3 -5 -2 -12 3 -15 5 -3 9 1 9 9 0 17 -3 19 -12 6z"/>
<path d="M3165 1540 c3 -5 8 -10 11 -10 2 0 4 5 4 10 0 6 -5 10 -11 10 -5 0
-7 -4 -4 -10z"/>
<path d="M3648 1462 c-18 -3 -24 -23 -12 -35 8 -8 37 20 32 31 -2 4 -11 6 -20
4z"/>
<path d="M3630 1400 c0 -5 5 -10 10 -10 6 0 10 5 10 10 0 6 -4 10 -10 10 -5 0
-10 -4 -10 -10z"/>
<path d="M1940 1379 c0 -5 5 -7 10 -4 6 3 10 8 10 11 0 2 -4 4 -10 4 -5 0 -10
-5 -10 -11z"/>
<path d="M3570 1386 c0 -2 7 -7 16 -10 8 -3 12 -2 9 4 -6 10 -25 14 -25 6z"/>
<path d="M3565 1350 c11 -5 27 -9 35 -9 9 0 8 4 -5 9 -11 5 -27 9 -35 9 -9 0
-8 -4 5 -9z"/>
<path d="M366 1018 c3 -4 9 -8 15 -8 5 0 9 4 9 8 0 5 -7 9 -15 9 -8 0 -12 -4
-9 -9z"/>
<path d="M688 963 c7 -3 16 -2 19 1 4 3 -2 6 -13 5 -11 0 -14 -3 -6 -6z"/>
<path d="M1251 901 c2 -26 2 -26 6 -2 3 13 8 20 11 14 5 -7 11 -7 19 2 9 10 6
13 -13 13 -20 0 -24 -5 -23 -27z"/>
<path d="M4518 883 c7 -3 16 -2 19 1 4 3 -2 6 -13 5 -11 0 -14 -3 -6 -6z"/>
<path d="M1286 868 c5 -7 2 -9 -9 -5 -11 4 -14 2 -10 -9 3 -8 11 -13 17 -11
15 5 20 37 6 37 -6 0 -8 -5 -4 -12z"/>
<path d="M889 748 c-2 -31 -8 -49 -23 -64 -19 -18 -21 -28 -4 -18 7 5 9 0 6
-14 -5 -20 17 -40 30 -27 3 3 1 5 -4 5 -5 1 5 7 22 14 47 21 50 59 8 91 -22
17 -34 21 -35 13z"/>
<path d="M5313 657 c3 -9 1 -17 -6 -20 -6 -2 -2 -6 9 -9 17 -4 20 -2 17 13 -3
11 -10 22 -16 26 -6 4 -8 0 -4 -10z"/>
<path d="M5355 650 c-3 -5 -2 -10 4 -10 5 0 13 5 16 10 3 6 2 10 -4 10 -5 0
-13 -4 -16 -10z"/>
<path d="M5384 623 c1 -16 -9 -18 -79 -18 -77 0 -80 -1 -83 -24 -2 -14 -37
-64 -78 -112 -57 -66 -76 -96 -80 -126 -10 -71 -66 -226 -91 -251 -22 -22 -30
-23 -80 -17 -49 6 -54 5 -51 -11 5 -29 64 -56 133 -62 61 -4 65 -3 65 16 0 23
46 133 59 142 14 9 41 68 41 90 0 36 26 74 85 124 31 27 57 47 58 45 1 -2 20
-39 41 -82 31 -60 46 -79 65 -83 42 -9 173 -77 200 -104 14 -14 30 -24 36 -22
12 2 27 -22 45 -70 6 -18 6 -28 0 -28 -6 0 -10 -7 -10 -15 0 -11 12 -15 45
-15 25 0 45 5 45 10 0 6 -7 10 -15 10 -8 0 -15 4 -15 10 0 5 6 7 13 5 9 -4 12
14 11 72 l-1 78 -36 6 c-43 7 -84 41 -89 73 -2 13 -10 21 -23 22 -34 1 -122
34 -138 52 -8 9 -22 44 -30 77 -8 33 -16 65 -18 70 -1 6 1 30 5 55 4 27 3 56
-3 73 -12 30 -30 37 -27 10z m-49 -173 c-3 -5 -12 -10 -18 -10 -7 0 -6 4 3 10
19 12 23 12 15 0z"/>
</g>
</svg>
